<?xml version="1.0" encoding="UTF-8" standalone="no"?>
<!DOCTYPE svg PUBLIC "-//W3C//DTD SVG 1.1//EN" "http://www.w3.org/Graphics/SVG/1.1/DTD/svg11.dtd">
<svg width="100%" height="100%" viewBox="0 0 189 72" version="1.1" xmlns="http://www.w3.org/2000/svg" xmlns:xlink="http://www.w3.org/1999/xlink" xml:space="preserve" xmlns:serif="http://www.serif.com/" style="fill-rule:evenodd;clip-rule:evenodd;stroke-linecap:round;stroke-linejoin:round;stroke-miterlimit:1.5;">
    <g transform="matrix(1,0,0,1,-2397.46,-681.671)">
        <g transform="matrix(1,0,0,1,420.08,-673.465)">
            <g transform="matrix(1,0,0,1,125.952,673.465)">
                <path d="M1901.81,696.923L1901.81,686.786L1899.06,686.786L1899.06,703.948L1918.55,684.062L1916.61,682.123L1901.81,696.923Z" style="fill:white;"/>
            </g>
        </g>
        <g transform="matrix(1,0,0,1,420.08,-673.465)">
            <g transform="matrix(1,0,0,1,125.952,673.465)">
                <path d="M1883.72,715.007L1874.46,724.268L1878.48,724.128L1886.4,715.908L1886.39,686.845L1883.64,686.845L1883.72,715.007Z" style="fill:white;"/>
            </g>
        </g>
        <g transform="matrix(1,0,0,1,420.08,-673.465)">
            <g transform="matrix(-2.63803e-16,-1,4.30397,-4.96739e-16,-945.01,3273.7)">
                <rect x="1910.7" y="686.483" width="2.743" height="4.22" style="fill:white;"/>
            </g>
        </g>
        <g transform="matrix(1,0,0,1,420.08,-673.465)">
            <g transform="matrix(-0.707107,0.707107,9.60261,9.60261,-3198.33,-6587.51)">
                <path d="M1913.45,686.483L1910.7,686.483L1910.7,690.703L1913.45,690.487L1913.45,686.483Z" style="fill:white;"/>
            </g>
        </g>
        <g transform="matrix(1,0,0,1,420.08,-673.465)">
            <g transform="matrix(0.707107,0.707107,-9.60261,9.60261,7349.05,-6587.51)">
                <path d="M1913.45,686.483L1910.7,686.483L1910.7,690.072L1913.45,689.985L1913.45,686.483Z" style="fill:white;"/>
            </g>
        </g>
        <g transform="matrix(1,0,0,1,420.08,-673.465)">
            <g transform="matrix(-0.707107,0.707107,11.3111,11.3111,-4305.69,-7760.39)">
                <path d="M1913.45,686.483L1910.7,686.483L1910.7,690.072L1913.45,689.906L1913.45,686.483Z" style="fill:white;"/>
            </g>
        </g>
        <g transform="matrix(1,0,0,1,420.08,-673.465)">
            <g transform="matrix(1,0,0,1,125.952,673.465)">
                <rect x="1912" y="698" width="5" height="5" style="fill:white;"/>
            </g>
        </g>
        <g transform="matrix(1,0,0,1,420.08,-673.465)">
            <g transform="matrix(1,0,0,1,192.08,673.465)">
                <rect x="1912" y="698" width="5" height="5" style="fill:white;"/>
            </g>
        </g>
        <g transform="matrix(1,0,0,1,420.08,-673.465)">
            <g transform="matrix(1,0,0,1,125.952,679.549)">
                <rect x="1912" y="698" width="5" height="5" style="fill:white;"/>
            </g>
        </g>
        <g transform="matrix(1,0,0,1,420.08,-673.465)">
            <g transform="matrix(1,0,0,1,192.08,679.549)">
                <rect x="1912" y="698" width="5" height="5" style="fill:white;"/>
            </g>
        </g>
        <g transform="matrix(1,0,0,1,420.08,-673.465)">
            <g transform="matrix(1,0,0,1,132.091,673.465)">
                <rect x="1912" y="698" width="5" height="5" style="fill:white;"/>
            </g>
        </g>
        <g transform="matrix(1,0,0,1,420.08,-673.465)">
            <g transform="matrix(1,0,0,1,198.219,673.465)">
                <rect x="1912" y="698" width="5" height="5" style="fill:white;"/>
            </g>
        </g>
        <g transform="matrix(1,0,0,1,420.08,-673.465)">
            <g transform="matrix(1,0,0,1,132.091,679.549)">
                <rect x="1912" y="698" width="5" height="5" style="fill:white;"/>
            </g>
        </g>
        <g transform="matrix(1,0,0,1,420.08,-673.465)">
            <g transform="matrix(1,0,0,1,198.219,679.549)">
                <rect x="1912" y="698" width="5" height="5" style="fill:white;"/>
            </g>
        </g>
        <g transform="matrix(1,0,0,1,420.08,-673.465)">
            <g transform="matrix(1,0,0,1,125.952,673.465)">
                <path d="M1916.63,682.171L1949.41,690.329L1949.41,714.942L1916.63,682.171Z" style="fill:none;stroke:white;stroke-width:1px;"/>
            </g>
        </g>
        <g transform="matrix(1,0,0,1,420.08,-673.465)">
            <g transform="matrix(-1,0,0,1,4024.99,673.465)">
                <path d="M1916.63,682.171L1949.41,690.329L1949.41,714.942L1916.63,682.171Z" style="fill:none;stroke:white;stroke-width:1px;"/>
            </g>
        </g>
        <g transform="matrix(1,0,0,1,420.08,-673.465)">
            <g transform="matrix(1,0,0,1,-89.6589,673.465)">
                <path d="M2092.07,750.502L2092.07,735.015L2089.09,735.015L2089.09,752.938L2089.1,752.938L2089.1,753.055L2106.78,753.055L2106.78,750.502L2092.07,750.502ZM2067.04,735.015L2067.04,753.055L2084.72,753.055L2084.72,750.502L2070.02,750.502L2070.02,745.226L2084.72,745.226L2084.72,742.673L2070.02,742.673L2070.02,737.568L2084.72,737.568L2084.72,735.015L2067.04,735.015ZM2137.89,735.015L2137.89,753.055L2155.58,753.055L2155.58,750.502L2140.88,750.502L2140.88,745.226L2155.58,745.226L2155.58,742.673L2140.88,742.673L2140.88,737.568L2155.58,737.568L2155.58,735.015L2137.89,735.015ZM2230.28,748.088L2218.01,735.044L2215.03,735.044L2215.03,752.967L2218.01,752.967L2218.01,739.431L2230.28,752.967L2233.27,752.967L2233.27,735.044L2230.28,735.044L2230.28,748.088ZM2241.08,747.731L2252.82,747.731L2252.82,752.967L2255.81,752.967L2255.81,736.842C2255.81,735.833 2254.99,735.015 2253.99,735.015C2250.59,735.015 2243.32,735.015 2239.92,735.015C2238.91,735.015 2238.1,735.833 2238.1,736.842L2238.1,752.967L2241.08,752.967L2241.08,747.731ZM2203.64,743.399L2203.64,744.091L2212.49,752.938L2208.86,752.919L2201.17,745.226L2197.39,745.226L2197.39,752.938L2194.4,752.938L2194.4,735.015L2197.39,735.015L2197.39,742.673L2200.76,742.673L2208.4,735.035L2212.03,735.015L2203.64,743.399ZM2189.12,736.842C2189.12,735.833 2188.3,735.015 2187.29,735.015C2183.89,735.015 2176.63,735.015 2173.23,735.015C2172.22,735.015 2171.4,735.833 2171.4,736.842C2171.4,740.28 2171.4,747.674 2171.4,751.112C2171.4,752.12 2172.22,752.938 2173.23,752.938L2187.29,752.938C2188.3,752.938 2189.12,752.12 2189.12,751.112C2189.12,747.674 2189.12,740.28 2189.12,736.842ZM2113.54,735.015L2110.56,735.015L2110.56,752.938L2113.54,752.938L2113.54,735.015ZM2123.79,737.568L2123.79,752.938L2126.78,752.938L2126.78,737.568L2134.2,737.568L2134.2,735.015L2116.51,735.015L2116.51,737.568L2123.79,737.568ZM2186.13,739.829C2186.13,738.82 2185.32,738.003 2184.31,738.003C2182.1,738.003 2178.42,738.003 2176.22,738.003C2175.21,738.003 2174.39,738.82 2174.39,739.829C2174.39,742.078 2174.39,745.875 2174.39,748.124C2174.39,749.133 2175.21,749.951 2176.22,749.951C2178.42,749.951 2182.1,749.951 2184.31,749.951C2185.32,749.951 2186.13,749.133 2186.13,748.124C2186.13,745.875 2186.13,742.078 2186.13,739.829ZM2252.82,745.179L2252.82,739.829C2252.82,738.82 2252.01,738.003 2251,738.003C2248.79,738.003 2245.11,738.003 2242.91,738.003C2241.9,738.003 2241.08,738.82 2241.08,739.829L2241.08,745.179L2252.82,745.179Z" style="fill:white;"/>
            </g>
        </g>
    </g>
</svg>
