<svg width="60" height="60" viewBox="0 0 60 60" fill="none" xmlns="http://www.w3.org/2000/svg">
<circle cx="30" cy="30" r="30" fill="white"/>
<path d="M18 32H30V34H18V32ZM16 27H26V29H16V27Z" fill="#39626B"/>
<path d="M43.919 32.606L40.919 25.606C40.842 25.4261 40.7138 25.2727 40.5505 25.165C40.3871 25.0573 40.1957 24.9999 40 25H37V23C37 22.7348 36.8946 22.4804 36.7071 22.2929C36.5195 22.1054 36.2652 22 36 22H20V24H35V36.556C34.5443 36.8206 34.1455 37.1728 33.8266 37.5922C33.5077 38.0117 33.275 38.4902 33.142 39H26.858C26.6146 38.0573 26.0357 37.2358 25.23 36.6894C24.4242 36.143 23.4468 35.9092 22.481 36.0319C21.5152 36.1546 20.6272 36.6253 19.9836 37.3558C19.3401 38.0863 18.985 39.0264 18.985 40C18.985 40.9736 19.3401 41.9137 19.9836 42.6442C20.6272 43.3747 21.5152 43.8454 22.481 43.9681C23.4468 44.0908 24.4242 43.857 25.23 43.3106C26.0357 42.7642 26.6146 41.9427 26.858 41H33.142C33.3595 41.8582 33.857 42.6194 34.5557 43.1632C35.2545 43.7069 36.1146 44.0021 37 44.0021C37.8853 44.0021 38.7454 43.7069 39.4442 43.1632C40.1429 42.6194 40.6404 41.8582 40.858 41H43C43.2652 41 43.5195 40.8946 43.7071 40.7071C43.8946 40.5196 44 40.2652 44 40V33C44 32.8645 43.9725 32.7305 43.919 32.606ZM23 42C22.6044 42 22.2177 41.8827 21.8888 41.6629C21.5599 41.4432 21.3036 41.1308 21.1522 40.7654C21.0008 40.3999 20.9612 39.9978 21.0384 39.6098C21.1156 39.2219 21.306 38.8655 21.5858 38.5858C21.8655 38.3061 22.2218 38.1156 22.6098 38.0384C22.9977 37.9613 23.3999 38.0009 23.7653 38.1522C24.1308 38.3036 24.4431 38.56 24.6629 38.8889C24.8827 39.2178 25 39.6044 25 40C24.9994 40.5303 24.7886 41.0387 24.4136 41.4136C24.0386 41.7886 23.5302 41.9995 23 42ZM37 27H39.34L41.484 32H37V27ZM37 42C36.6044 42 36.2177 41.8827 35.8888 41.6629C35.5599 41.4432 35.3036 41.1308 35.1522 40.7654C35.0008 40.3999 34.9612 39.9978 35.0384 39.6098C35.1156 39.2219 35.306 38.8655 35.5858 38.5858C35.8655 38.3061 36.2218 38.1156 36.6098 38.0384C36.9977 37.9613 37.3999 38.0009 37.7653 38.1522C38.1308 38.3036 38.4431 38.56 38.6629 38.8889C38.8827 39.2178 39 39.6044 39 40C38.9994 40.5303 38.7886 41.0387 38.4136 41.4136C38.0386 41.7886 37.5302 41.9995 37 42ZM42 39H40.858C40.6377 38.1434 40.1394 37.3842 39.4412 36.8413C38.743 36.2983 37.8844 36.0025 37 36V34H42V39Z" fill="#39626B"/>
</svg>
