<svg width="60" height="60" viewBox="0 0 60 60" fill="none" xmlns="http://www.w3.org/2000/svg">
<circle cx="30" cy="30" r="30" fill="white"/>
<path d="M39.5648 21.3036C39.3924 21.1547 39.1826 21.0558 38.958 21.0176C38.7334 20.9795 38.5026 21.0035 38.2907 21.0871L21.7939 27.5681C21.5422 27.6669 21.3294 27.8446 21.1872 28.0745C21.045 28.3044 20.981 28.5741 21.0049 28.8434C21.0288 29.1127 21.1392 29.367 21.3197 29.5683C21.5002 29.7695 21.741 29.9069 22.0061 29.9599L26.34 30.8266V36.2071C26.3398 36.4547 26.413 36.6968 26.5505 36.9028C26.688 37.1087 26.8835 37.2693 27.1123 37.364C27.341 37.4588 27.5928 37.4835 27.8356 37.4351C28.0785 37.3866 28.3015 37.2672 28.4764 37.0919L30.9138 34.6543L34.5595 37.8626C34.7862 38.0639 35.0788 38.1752 35.382 38.1756C35.5138 38.1754 35.6448 38.1547 35.7702 38.114C35.977 38.0484 36.163 37.9297 36.3097 37.7698C36.4563 37.6099 36.5585 37.4143 36.606 37.2025L39.968 22.5313C40.0193 22.3094 40.0088 22.0776 39.9377 21.8612C39.8666 21.6448 39.7377 21.4519 39.5649 21.3035L39.5648 21.3036ZM22.0734 28.7486C22.0676 28.7098 22.0757 28.6702 22.0963 28.6369C22.117 28.6036 22.1487 28.5786 22.186 28.5665L35.9898 23.1435L26.752 29.8152L22.2164 28.908C22.1775 28.9027 22.1418 28.8837 22.1157 28.8545C22.0895 28.8253 22.0745 28.7878 22.0734 28.7486ZM27.7178 36.3335C27.6928 36.3585 27.661 36.3755 27.6263 36.3824C27.5916 36.3893 27.5557 36.3858 27.523 36.3723C27.4904 36.3587 27.4625 36.3358 27.4428 36.3064C27.4232 36.2771 27.4127 36.2425 27.4127 36.2071V31.5734L30.107 33.9444L27.7178 36.3335ZM35.5604 36.963C35.5535 36.9932 35.5389 37.0211 35.518 37.0439C35.497 37.0668 35.4705 37.0838 35.441 37.0933C35.4116 37.1028 35.3801 37.1045 35.3498 37.0982C35.3195 37.0919 35.2913 37.0779 35.268 37.0574L27.7351 30.4284L38.9069 22.3599L35.5604 36.963Z" fill="#39626B"/>
</svg>
